<svg aria-hidden="true" style="position: absolute; width: 0; height: 0; overflow: hidden;" version="1.1" xmlns="http://www.w3.org/2000/svg" xmlns:xlink="http://www.w3.org/1999/xlink">
<defs>
<symbol id="icon-MAGNIFYING-GLASS" viewBox="0 0 18 18">
<title>MAGNIFYING-GLASS</title>
<path d="M17.315 14.985c0.3 0.295 0.485 0.71 0.485 1.165 0 0.91-0.74 1.65-1.65 1.65-0.455 0-0.87-0.185-1.165-0.485v0l-4.84-4.835c-0.98 0.58-2.12 0.92-3.345 0.92-3.645 0-6.6-2.955-6.6-6.6s2.955-6.6 6.6-6.6c3.645 0 6.6 2.955 6.6 6.6 0 1.225-0.34 2.365-0.92 3.345l4.835 4.84zM6.8 1.85c-2.735 0-4.95 2.215-4.95 4.95s2.215 4.95 4.95 4.95c2.735 0 4.95-2.215 4.95-4.95s-2.215-4.95-4.95-4.95z"></path>
</symbol>
<symbol id="icon-SHOPPING-CART" viewBox="0 0 22 18">
<title>SHOPPING-CART</title>
<path d="M21.27 4.398v0l-2.97 6.6c-0.144 0.324-0.462 0.552-0.834 0.582v0l-8.556 0.57 0.498 1.41h9.312c1.092 0 1.98 0.888 1.98 1.98s-0.888 1.98-1.98 1.98c-1.092 0-1.98-0.888-1.98-1.98h-9.24c0 1.092-0.888 1.98-1.98 1.98s-1.98-0.888-1.98-1.98c0-1.092 0.888-1.98 1.98-1.98h1.788l-3.81-10.89h-2.268c-0.546 0-0.99-0.444-0.99-0.99s0.444-0.99 0.99-0.99h2.97c0.432 0 0.798 0.276 0.93 0.666l0.006-0.006 0.576 1.65h14.658c0.546 0 0.99 0.444 0.99 0.99 0 0.144-0.030 0.282-0.090 0.408zM6.402 4.98l1.83 5.226 8.508-0.564 2.1-4.662h-12.438z"></path>
</symbol>
</defs>
</svg>
