<svg aria-hidden="true" style="position: absolute; width: 0; height: 0; overflow: hidden;" version="1.1" xmlns="http://www.w3.org/2000/svg" xmlns:xlink="http://www.w3.org/1999/xlink">
<defs>
<symbol id="icon-facebook" viewBox="0 0 13 26">
<title>facebook</title>
<path d="M12.090 0.2c0 1.48 0 4.12 0 4.12s-3.040-0.3-3.8 0.86c-0.41 0.64-0.17 2.5-0.2 3.84 1.32 0 2.7 0 4.020 0-0.34 1.56-0.58 2.62-0.83 3.98-1.15 0-3.22 0-3.22 0v12.8c0 0-3.79 0-5.58 0 0-3.95 0-8.55 0-12.75-0.87 0-1.51 0-2.37 0 0-1.48 0-2.55 0-4.030 0.84 0 1.5 0 2.34 0 0.13-2.95 0.17-5.87 1.63-7.35 1.65-1.67 3.22-1.47 8.010-1.47z"></path>
</symbol>
<symbol id="icon-instagram" viewBox="0 0 26 26">
<title>instagram</title>
<path d="M22.7 25.8h-19.2c-1.77 0-3.2-1.43-3.2-3.2v-19.2c0-1.77 1.43-3.2 3.2-3.2h19.2c1.77 0 3.2 1.43 3.2 3.2v19.2c0 1.77-1.43 3.2-3.2 3.2zM13.1 8.040c-2 0-3.71 1.18-4.5 2.88v0c-0.010 0.020-0.020 0.040-0.020 0.050-0.050 0.11-0.090 0.22-0.13 0.33-0.020 0.050-0.040 0.1-0.060 0.15-0.040 0.11-0.070 0.23-0.1 0.34-0.010 0.050-0.030 0.11-0.040 0.16-0.020 0.12-0.040 0.24-0.060 0.37 0 0.050-0.020 0.1-0.020 0.15-0.020 0.17-0.030 0.35-0.030 0.53 0 2.74 2.22 4.96 4.96 4.96s4.96-2.22 4.96-4.96c0-0.18-0.010-0.36-0.030-0.53 0-0.050-0.020-0.1-0.020-0.15-0.020-0.13-0.040-0.25-0.060-0.37-0.020-0.050-0.030-0.11-0.040-0.16-0.030-0.11-0.060-0.23-0.1-0.34-0.020-0.050-0.040-0.1-0.060-0.15-0.040-0.11-0.080-0.22-0.13-0.33 0-0.010-0.010-0.030-0.020-0.050v0c-0.79-1.7-2.5-2.88-4.5-2.88zM23.020 4.36c0-0.71-0.57-1.28-1.28-1.28h-2.56c-0.71 0-1.28 0.57-1.28 1.28v2.56c0 0.71 0.57 1.28 1.28 1.28h2.56c0.71 0 1.28-0.57 1.28-1.28v-2.56zM23.020 10.92h-2.36c0.18 0.66 0.28 1.36 0.28 2.080 0 4.33-3.51 7.84-7.84 7.84s-7.84-3.51-7.84-7.84c0-0.72 0.1-1.42 0.28-2.080h-2.36v10.72c0 0.71 0.57 1.28 1.28 1.28h17.28c0.71 0 1.28-0.57 1.28-1.28v-10.72z"></path>
</symbol>
<symbol id="icon-pinterest" viewBox="0 0 21 26">
<title>pinterest</title>
<path d="M9.050 16.85c-0.21 0.84-0.42 1.71-0.64 2.56-0.21 0.85-0.4 1.7-0.71 2.47-0.52 1.29-1.18 2.52-2.050 3.53-0.57 0.66-0.45 0.4-0.62 0.36-0.14-0.030-0.15-0.16-0.17-0.34-0.14-1.020-0.050-2.2 0-3.34 0.060-1.31 0.34-2.39 0.59-3.48 0.49-2.060 0.95-4.080 1.44-6.16 0.030-0.14 0.12-0.37 0.090-0.44-0.22-0.58-0.37-1.1-0.43-1.7-0.070-0.7-0.020-1.35 0.14-1.95 0.27-1.060 0.91-1.99 1.89-2.34 0.63-0.21 1.32-0.11 1.74 0.14 0.43 0.25 0.73 0.66 0.86 1.24 0.15 0.62 0.040 1.35-0.080 1.89-0.26 1.22-0.61 2.14-0.93 3.31-0.16 0.59-0.34 1.19-0.19 1.81 0.13 0.58 0.43 0.98 0.85 1.28 0.42 0.31 0.92 0.48 1.62 0.46 1.23-0.050 2.080-0.83 2.65-1.57 0.91-1.19 1.47-2.79 1.68-4.69 0.060-0.61 0.11-1.32 0.070-2.010-0.090-1.29-0.49-2.32-1.13-3.12-0.61-0.76-1.47-1.37-2.51-1.71s-2.48-0.45-3.75-0.23c-2.32 0.39-3.95 1.71-4.91 3.53-0.51 0.95-0.84 2.050-0.84 3.41 0 1.050 0.26 1.86 0.68 2.5 0.13 0.2 0.32 0.37 0.45 0.6 0.19 0.32-0.020 0.81-0.12 1.16-0.11 0.43-0.12 1.010-0.61 1.020-0.21 0.010-0.47-0.14-0.64-0.24-1.31-0.72-2.1-2.030-2.42-3.74-0.2-1.030-0.2-2.23 0-3.23 0.19-0.97 0.54-1.86 0.93-2.58 0.82-1.51 2.010-2.71 3.46-3.57 1.12-0.66 2.38-1.12 3.91-1.34 0.51-0.080 1.030-0.11 1.6-0.13 1.67-0.080 3.19 0.29 4.33 0.8 1.21 0.54 2.17 1.26 2.98 2.15 0.84 0.92 1.45 1.98 1.84 3.31 0.2 0.69 0.39 1.43 0.39 2.29 0 0.85-0.18 1.61-0.3 2.37-0.48 2.82-1.82 5.14-3.84 6.45-0.49 0.32-1.080 0.62-1.76 0.81-0.66 0.2-1.42 0.34-2.24 0.29-0.79-0.060-1.44-0.27-1.98-0.58s-1-0.68-1.32-1.25z"></path>
</symbol>
<symbol id="icon-twitter" viewBox="0 0 31 26">
<title>twitter</title>
<path d="M20.694 0.709c2.411-0.047 3.687 0.839 4.905 1.95 1.040-0.095 2.387-0.674 3.179-1.075 0.26-0.142 0.52-0.284 0.78-0.425-0.461 1.229-1.075 2.186-2.021 2.919-0.201 0.165-0.414 0.378-0.674 0.485 0 0 0 0.012 0 0.012 1.347-0.012 2.458-0.615 3.51-0.945 0 0 0 0 0 0.012-0.555 0.875-1.3 1.773-2.104 2.411-0.319 0.26-0.65 0.52-0.969 0.768 0.012 1.43-0.024 2.789-0.284 3.995-1.56 6.961-5.661 11.688-12.161 13.721-2.34 0.721-6.11 1.028-8.781 0.366-1.335-0.331-2.529-0.709-3.652-1.194-0.626-0.272-1.205-0.579-1.761-0.91-0.177-0.106-0.366-0.225-0.544-0.331 0.603 0.012 1.312 0.177 1.985 0.071 0.603-0.095 1.205-0.071 1.773-0.189 1.406-0.307 2.647-0.721 3.723-1.347 0.52-0.307 1.312-0.662 1.678-1.099-0.697 0.012-1.324-0.154-1.844-0.331-2.009-0.709-3.179-2.021-3.935-3.971 0.603 0.059 2.364 0.225 2.765-0.13-0.768-0.035-1.501-0.485-2.021-0.815-1.619-1.005-2.943-2.695-2.931-5.306 0.213 0.095 0.425 0.201 0.638 0.295 0.402 0.177 0.815 0.272 1.3 0.366 0.213 0.047 0.615 0.165 0.851 0.071-0.012 0-0.024 0-0.035 0-0.307-0.355-0.815-0.603-1.135-0.993-1.028-1.288-2.009-3.274-1.395-5.625 0.165-0.603 0.414-1.135 0.674-1.619 0.012 0 0.024 0.012 0.024 0.012 0.13 0.26 0.39 0.437 0.567 0.65 0.532 0.662 1.182 1.253 1.844 1.773 2.269 1.773 4.314 2.86 7.587 3.664 0.827 0.201 1.796 0.366 2.789 0.366-0.284-0.815-0.189-2.127 0.024-2.919 0.555-1.974 1.761-3.404 3.522-4.16 0.414-0.189 0.886-0.319 1.371-0.425 0.26-0.035 0.508-0.059 0.756-0.095z"></path>
</symbol>
</defs>
</svg>
