<svg aria-hidden="true" style="position:absolute;width:0;height:0" xmlns="http://www.w3.org/2000/svg" overflow="hidden"><defs><symbol id="icon-MAGNIFYING-GLASS" viewBox="0 0 18 18"><path d="M17.315 14.985c.3.295.485.71.485 1.165 0 .91-.74 1.65-1.65 1.65-.455 0-.87-.185-1.165-.485l-4.84-4.835c-.98.58-2.12.92-3.345.92a6.6 6.6 0 1 1 6.6-6.6c0 1.225-.34 2.365-.92 3.345l4.835 4.84zM6.8 1.85c-2.735 0-4.95 2.215-4.95 4.95s2.215 4.95 4.95 4.95c2.735 0 4.95-2.215 4.95-4.95S9.535 1.85 6.8 1.85z"/></symbol><symbol id="icon-SHOPPING-CART" viewBox="0 0 22 18"><path d="M21.27 4.398l-2.97 6.6a.997.997 0 0 1-.834.582l-8.556.57.498 1.41h9.312c1.092 0 1.98.888 1.98 1.98s-.888 1.98-1.98 1.98a1.982 1.982 0 0 1-1.98-1.98H7.5c0 1.092-.888 1.98-1.98 1.98s-1.98-.888-1.98-1.98.888-1.98 1.98-1.98h1.788L3.498 2.67H1.23a.991.991 0 0 1 0-1.98H4.2a.98.98 0 0 1 .93.666l.006-.006L5.712 3H20.37a.991.991 0 0 1 .9 1.398zM6.402 4.98l1.83 5.226 8.508-.564 2.1-4.662H6.402z"/></symbol></defs></svg>