<svg aria-hidden="true" style="position:absolute;width:0;height:0" xmlns="http://www.w3.org/2000/svg" overflow="hidden"><defs><symbol id="icon-facebook" viewBox="0 0 13 26"><path d="M12.09.2v4.12s-3.04-.3-3.8.86c-.41.64-.17 2.5-.2 3.84h4.02c-.34 1.56-.58 2.62-.83 3.98H8.06v12.8H2.48V13.05H.11V9.02h2.34c.13-2.95.17-5.87 1.63-7.35C5.73 0 7.3.2 12.09.2z"/></symbol><symbol id="icon-instagram" viewBox="0 0 26 26"><path d="M22.7 25.8H3.5c-1.77 0-3.2-1.43-3.2-3.2V3.4C.3 1.63 1.73.2 3.5.2h19.2c1.77 0 3.2 1.43 3.2 3.2v19.2c0 1.77-1.43 3.2-3.2 3.2zM13.1 8.04c-2 0-3.71 1.18-4.5 2.88-.01.02-.02.04-.02.05-.05.11-.09.22-.13.33l-.06.15c-.04.11-.07.23-.1.34-.01.05-.03.11-.04.16-.02.12-.04.24-.06.37 0 .05-.02.1-.02.15a4.96 4.96 0 0 0 4.93 5.49 4.96 4.96 0 0 0 4.93-5.49c0-.05-.02-.1-.02-.15-.02-.13-.04-.25-.06-.37-.02-.05-.03-.11-.04-.16-.03-.11-.06-.23-.1-.34l-.06-.15c-.04-.11-.08-.22-.13-.33 0-.01-.01-.03-.02-.05-.79-1.7-2.5-2.88-4.5-2.88zm9.92-3.68c0-.71-.57-1.28-1.28-1.28h-2.56c-.71 0-1.28.57-1.28 1.28v2.56c0 .71.57 1.28 1.28 1.28h2.56c.71 0 1.28-.57 1.28-1.28V4.36zm0 6.56h-2.36a7.84 7.84 0 1 1-15.12 0H3.18v10.72c0 .71.57 1.28 1.28 1.28h17.28c.71 0 1.28-.57 1.28-1.28V10.92z"/></symbol><symbol id="icon-pinterest" viewBox="0 0 21 26"><path d="M9.05 16.85c-.21.84-.42 1.71-.64 2.56-.21.85-.4 1.7-.71 2.47-.52 1.29-1.18 2.52-2.05 3.53-.57.66-.45.4-.62.36-.14-.03-.15-.16-.17-.34-.14-1.02-.05-2.2 0-3.34.06-1.31.34-2.39.59-3.48.49-2.06.95-4.08 1.44-6.16.03-.14.12-.37.09-.44-.22-.58-.37-1.1-.43-1.7-.07-.7-.02-1.35.14-1.95.27-1.06.91-1.99 1.89-2.34.63-.21 1.32-.11 1.74.14.43.25.73.66.86 1.24.15.62.04 1.35-.08 1.89-.26 1.22-.61 2.14-.93 3.31-.16.59-.34 1.19-.19 1.81.13.58.43.98.85 1.28.42.31.92.48 1.62.46 1.23-.05 2.08-.83 2.65-1.57.91-1.19 1.47-2.79 1.68-4.69.06-.61.11-1.32.07-2.01-.09-1.29-.49-2.32-1.13-3.12-.61-.76-1.47-1.37-2.51-1.71s-2.48-.45-3.75-.23c-2.32.39-3.95 1.71-4.91 3.53-.51.95-.84 2.05-.84 3.41 0 1.05.26 1.86.68 2.5.13.2.32.37.45.6.19.32-.02.81-.12 1.16-.11.43-.12 1.01-.61 1.02-.21.01-.47-.14-.64-.24-1.31-.72-2.1-2.03-2.42-3.74-.2-1.03-.2-2.23 0-3.23.19-.97.54-1.86.93-2.58a9.276 9.276 0 0 1 3.46-3.57C6.56 1.02 7.82.56 9.35.34c.51-.08 1.03-.11 1.6-.13 1.67-.08 3.19.29 4.33.8 1.21.54 2.17 1.26 2.98 2.15.84.92 1.45 1.98 1.84 3.31.2.69.39 1.43.39 2.29 0 .85-.18 1.61-.3 2.37-.48 2.82-1.82 5.14-3.84 6.45-.49.32-1.08.62-1.76.81-.66.2-1.42.34-2.24.29-.79-.06-1.44-.27-1.98-.58s-1-.68-1.32-1.25z"/></symbol><symbol id="icon-twitter" viewBox="0 0 31 26"><path d="M20.694.709c2.411-.047 3.687.839 4.905 1.95 1.04-.095 2.387-.674 3.179-1.075l.78-.425c-.461 1.229-1.075 2.186-2.021 2.919-.201.165-.414.378-.674.485v.012c1.347-.012 2.458-.615 3.51-.945v.012c-.555.875-1.3 1.773-2.104 2.411-.319.26-.65.52-.969.768.012 1.43-.024 2.789-.284 3.995-1.56 6.961-5.661 11.688-12.161 13.721-2.34.721-6.11 1.028-8.781.366-1.335-.331-2.529-.709-3.652-1.194a15.504 15.504 0 0 1-1.761-.91c-.177-.106-.366-.225-.544-.331.603.012 1.312.177 1.985.071.603-.095 1.205-.071 1.773-.189 1.406-.307 2.647-.721 3.723-1.347.52-.307 1.312-.662 1.678-1.099-.697.012-1.324-.154-1.844-.331-2.009-.709-3.179-2.021-3.935-3.971.603.059 2.364.225 2.765-.13-.768-.035-1.501-.485-2.021-.815-1.619-1.005-2.943-2.695-2.931-5.306.213.095.425.201.638.295.402.177.815.272 1.3.366.213.047.615.165.851.071h-.035c-.307-.355-.815-.603-1.135-.993C1.901 7.802.92 5.816 1.534 3.465a7.7 7.7 0 0 1 .674-1.619c.012 0 .024.012.024.012.13.26.39.437.567.65.532.662 1.182 1.253 1.844 1.773 2.269 1.773 4.314 2.86 7.587 3.664.827.201 1.796.366 2.789.366-.284-.815-.189-2.127.024-2.919.555-1.974 1.761-3.404 3.522-4.16.414-.189.886-.319 1.371-.425.26-.035.508-.059.756-.095z"/></symbol></defs></svg>